<svg data-v-0dd9719b="" version="1.0" xmlns="http://www.w3.org/2000/svg" xmlns:xlink="http://www.w3.org/1999/xlink" width="100%" height="100%" viewBox="0 0 340.000000 250.000000" preserveAspectRatio="xMidYMid meet" color-interpolation-filters="sRGB" style="margin: auto;"> <rect data-v-0dd9719b="" x="0" y="0" width="100%" height="100%" fill="#fff" fill-opacity="1" class="background"></rect> <rect data-v-0dd9719b="" x="0" y="0" width="100%" height="100%" fill="url(#watermark)" fill-opacity="1" class="watermarklayer"></rect> <g data-v-0dd9719b="" fill="#333" class="icon-text-wrapper icon-svg-group iconsvg" transform="translate(48.525001525878906,93.25900650024414)"><g class="iconsvg-imagesvg" transform="translate(0,0)"><g><rect fill="#333" fill-opacity="0" stroke-width="2" x="0" y="0" width="60" height="63.481986986192666" class="image-rect"></rect> <svg x="0" y="0" width="60" height="63.481986986192666" filtersec="colorsb1616628075" class="image-svg-svg primary" style="overflow: visible;"><svg xmlns="http://www.w3.org/2000/svg" viewBox="-0.006710052490234375 0 93.56985473632812 99.00000762939453"><path d="M93.56 65.92H50c-8.55 0-16-6.33-16.84-14.85a16.44 16.44 0 0 1 16.36-18h44.04v10a.78.78 0 0 1-.78.78H49.65A5.71 5.71 0 0 0 44 48.31a5.62 5.62 0 0 0 5.49 6.78h43.29a.78.78 0 0 1 .78.79z" fill="#333"></path><path d="M92.78 99H50.47C22.79 99-.46 76.32 0 48.63A49.54 49.54 0 0 1 49.49 0h43.29a.78.78 0 0 1 .78.78v10.05H50.37c-21.63 0-39.9 17.69-39.54 39.32a38.71 38.71 0 0 0 38.66 38h44.07v10a.78.78 0 0 1-.78.85z" fill="#333"></path><path d="M93.56 82.86H48.82a32.73 32.73 0 0 1-32.69-32.68V48.8a32.73 32.73 0 0 1 32.69-32.69h44.74v10.83H48.82A21.88 21.88 0 0 0 27 48.8v1.38A21.88 21.88 0 0 0 48.82 72h44.74z" fill="#00eb00"></path></svg></svg> <!----></g></g> <g transform="translate(67,3.519744873046875)"><g data-gra="path-name" fill-rule="" class="tp-name iconsvg-namesvg" transform="translate(0,0)"><g transform="scale(1)"><g><path d="M39.2 4.23L39.2 4.23 34.56-7.88 27.4 4.46 24.84 2.97 33.21-11.43 26.01-30.42 6.43-30.42 6.43-24.7 22.05-24.7Q22.68-24.7 23.11-24.28 23.54-23.85 23.54-23.22L23.54-23.22 23.54-0.63Q23.54-0.04 23.11 0.38 22.68 0.81 22.05 0.81L22.05 0.81 10.62 0.81 10.62-2.11 20.56-2.11 20.56-21.73 6.43-21.73 6.43-4.27Q6.43-4.18 6.41-4.12 6.39-4.05 6.39-3.96L6.39-3.96 4.63 4 1.75 3.38 3.46-4.46 3.46-31.9Q3.46-32.53 3.89-32.96 4.32-33.39 4.95-33.39L4.95-33.39 24.88-33.39 23.98-35.73 26.77-36.81 28.08-33.39 34.92-33.39 33.98-35.73 36.72-36.81 38.07-33.39 42.66-33.39 42.66-30.42 29.2-30.42 35.14-14.71 41.17-25.06 43.7-23.58 36.49-11.16 41.94 3.19 39.2 4.23ZM49.59-12.11L49.59-12.11 46.76-12.96 49.73-22.41 47.34-22.41 47.34-25.33 56.56-25.33 56.56-30.24 48.2-30.24 48.2-33.16 56.56-33.16 56.56-36.27 59.53-36.27 59.53-33.16 66.47-33.16 66.47-30.24 59.53-30.24 59.53-25.33 65.61-25.33 67.95-34.83 70.83-34.11 68.63-25.33 71.64-25.33 71.64-22.41 52.78-22.41 51.57-18.45Q51.84-18.63 52.24-18.63L52.24-18.63 68.76-18.63Q69.39-18.63 69.82-18.2 70.25-17.77 70.25-17.14L70.25-17.14 70.25 2.43Q70.25 3.06 69.82 3.49 69.39 3.92 68.76 3.92L68.76 3.92 52.24 3.92Q51.62 3.92 51.19 3.49 50.76 3.06 50.76 2.43L50.76 2.43 50.76-15.88 49.59-12.11ZM76.19 3.92L76.19 3.92 73.22 3.92 73.22-33.93Q73.22-34.56 73.64-34.99 74.07-35.41 74.7-35.41L74.7-35.41 86.31-35.41Q87.03-35.41 87.44-34.88L87.44-34.88Q87.88-34.29 87.75-33.62L87.75-33.62 84.56-19.53 87.61-1.93Q87.75-1.3 87.3-0.72L87.3-0.72Q86.85-0.18 86.17-0.18L86.17-0.18 78.3-0.18 78.3-3.15 84.42-3.15 81.63-19.3Q81.54-19.57 81.63-19.89L81.63-19.89 84.47-32.45 76.19-32.45 76.19 3.92ZM67.28-8.82L67.28-15.66 53.73-15.66 53.73-8.82 67.28-8.82ZM53.73-5.85L53.73 0.99 67.28 0.99 67.28-5.85 53.73-5.85ZM129.15 3.82L129.15 3.82 109.31 3.82Q108.67 3.82 108.25 3.4 107.82 2.97 107.82 2.34L107.82 2.34 107.82-13.9Q107.82-14.04 107.82-14.13L107.82-14.13 107.01-13.05 104.63-14.85 112.72-25.65Q113.13-26.28 113.94-26.28L113.94-26.28 124.38-26.28Q125.1-26.28 125.55-25.7L125.55-25.7 133.83-14.85 131.49-13.05 130.59-14.17Q130.63-14.04 130.63-13.9L130.63-13.9 130.63 2.34Q130.63 2.97 130.21 3.4 129.78 3.82 129.15 3.82L129.15 3.82ZM103.64-10.21L103.64-10.21 100.26-14.94 100.26 3.87 97.33 3.87 97.33-15.93 93.78-9.31 91.17-10.71 101.11-29.2 92.47-29.2 92.47-32.13 97.29-32.13 96.21-35.91 99.05-36.77 100.39-32.13 103.59-32.13Q104.44-32.13 104.89-31.41L104.89-31.41Q105.34-30.73 104.89-29.97L104.89-29.97 100.26-21.33 100.26-20.02 100.39-19.8 103.05-23.94 105.57-22.36 102.28-17.19 106.02-11.92 103.64-10.21ZM114.66-23.31L114.66-23.31 108.59-15.16Q108.9-15.34 109.31-15.34L109.31-15.34 129.15-15.34Q129.56-15.34 129.87-15.16L129.87-15.16 123.66-23.31 114.66-23.31ZM117.81-34.6L107.19-23.89 105.12-25.96 115.69-36.67 117.81-34.6ZM133.38-25.96L131.26-23.89 120.64-34.6 122.76-36.67 133.38-25.96ZM110.79-12.42L110.79 0.85 127.71 0.85 127.71-12.42 110.79-12.42ZM139.68 4.32L139.68 4.32 136.89 3.38 139.19-3.46 139.19-32.76Q139.19-33.39 139.61-33.82 140.04-34.24 140.67-34.24L140.67-34.24 158.76-34.24 158.13-35.82 160.92-36.95 161.95-34.24 176.22-34.24Q176.85-34.24 177.28-33.82 177.7-33.39 177.7-32.76L177.7-32.76 177.7-24.52Q177.7-23.89 177.28-23.47 176.85-23.04 176.22-23.04L176.22-23.04 142.11-23.04 142.11-3.19Q142.11-2.92 142.06-2.75L142.06-2.75 139.68 4.32ZM174.6 4L174.6 4 158.99 4 158.99 1.03 173.12 1.03 173.12-8.23 150.84-8.23 147.19 4.54 144.36 3.73 149.76-15.3 143.41-15.3 143.41-18.27 159.03-18.27 157.81-20.38 160.38-21.87 162.41-18.27 177.66-18.27 177.66-15.3 152.87-15.3 151.69-11.21 174.6-11.21Q175.23-11.21 175.66-10.78 176.09-10.35 176.09-9.72L176.09-9.72 176.09 2.52Q176.09 3.15 175.66 3.58 175.23 4 174.6 4L174.6 4ZM142.11-31.27L142.11-26.01 174.74-26.01 174.74-31.27 142.11-31.27Z" transform="translate(-1.75, 36.95000076293945)"></path></g> <!----> <!----> <!----> <!----> <!----> <!----> <!----></g></g> <g data-gra="path-slogan" fill-rule="" class="tp-slogan iconsvg-slogansvg" fill="#333" transform="translate(5,47.4900016784668)"><rect x="0" height="1" y="3.9750003814697266" width="23.914997100830078"></rect> <rect height="1" y="3.9750003814697266" width="23.914997100830078" x="142.0349998474121"></rect> <g transform="translate(26.914997100830078,0)"><g transform="scale(1)"><path d="M8.06-6.05L8.06-6.05L6.94-6.05Q6.52-7.78 4.55-7.83L4.55-7.83Q1.83-7.69 1.73-4.36L1.73-4.36Q1.73-0.80 4.59-0.80L4.59-0.80Q6.56-0.84 7.03-3.19L7.03-3.19L8.16-3.19Q7.64 0.05 4.36 0.14L4.36 0.14Q0.61 0 0.52-4.31L0.52-4.31Q0.70-8.63 4.55-8.81L4.55-8.81Q7.59-8.72 8.06-6.05ZM10.69-5.06L15.19-5.06L15.19-8.58L16.36-8.58L16.36 0L15.19 0L15.19-3.98L10.69-3.98L10.69 0L9.52 0L9.52-8.58L10.69-8.58L10.69-5.06ZM19.45-1.03L24.61-1.03L24.61 0L18.28 0L18.28-8.58L24.52-8.58L24.52-7.59L19.45-7.59L19.45-4.92L24.14-4.92L24.14-3.89L19.45-3.89L19.45-1.03ZM27.52-8.58L31.83-1.64L31.83-8.58L32.95-8.58L32.95 0L31.64 0L27.28-6.94L27.23-6.94L27.23 0L26.11 0L26.11-8.58L27.52-8.58ZM41.16-3.61L38.53-3.61L38.53-4.59L42.28-4.59L42.28 0L41.53 0L41.25-1.08Q40.27 0.09 38.44 0.14L38.44 0.14Q36.70 0.14 35.77-0.75L35.77-0.75Q34.36-2.06 34.41-4.36L34.41-4.36Q34.73-8.63 38.48-8.81L38.48-8.81Q41.67-8.63 42.14-6L42.14-6L41.02-6Q40.55-7.78 38.44-7.83L38.44-7.83Q35.77-7.64 35.63-4.31L35.63-4.31Q35.63-0.75 38.48-0.75L38.48-0.75Q39.52-0.75 40.27-1.31L40.27-1.31Q41.20-2.06 41.16-3.61L41.16-3.61ZM47.58 0L44.11 0L44.11-8.58L47.63-8.58Q51.09-8.39 51.23-4.41L51.23-4.41Q51.05-0.09 47.58 0L47.58 0ZM47.44-7.64L45.28-7.64L45.28-0.98L47.53-0.98Q49.97-1.13 50.06-4.31L50.06-4.31Q50.02-7.55 47.44-7.64L47.44-7.64ZM58.36-3.19L58.36-8.58L59.53-8.58L59.53-3.05Q59.39 0.05 56.02 0.14L56.02 0.14Q52.88 0.05 52.73-2.86L52.73-2.86L52.73-8.58L53.91-8.58L53.91-3.19Q53.95-0.84 56.06-0.80L56.06-0.80Q58.36-0.84 58.36-3.19L58.36-3.19ZM71.58-8.58L68.34-3.47L68.34 0L67.17 0L67.17-3.47L63.94-8.58L65.30-8.58L67.73-4.45L70.22-8.58L71.58-8.58ZM78.28-3.19L78.28-8.58L79.45-8.58L79.45-3.05Q79.31 0.05 75.94 0.14L75.94 0.14Q72.80 0.05 72.66-2.86L72.66-2.86L72.66-8.58L73.83-8.58L73.83-3.19Q73.88-0.84 75.98-0.80L75.98-0.80Q78.28-0.84 78.28-3.19L78.28-3.19ZM86.77-3.89L82.55-3.89L82.55 0L81.38 0L81.38-8.58L87.33-8.58L87.33-7.59L82.55-7.59L82.55-4.92L86.77-4.92L86.77-3.89ZM94.17 0L93.33-2.48L89.86-2.48L88.97 0L87.80 0L91.03-8.58L92.34-8.58L95.44 0L94.17 0ZM91.59-7.31L90.23-3.52L92.91-3.52L91.64-7.31L91.59-7.31ZM97.88-8.58L102.19-1.64L102.19-8.58L103.31-8.58L103.31 0L102 0L97.64-6.94L97.59-6.94L97.59 0L96.47 0L96.47-8.58L97.88-8.58ZM111.52-3.61L108.89-3.61L108.89-4.59L112.64-4.59L112.64 0L111.89 0L111.61-1.08Q110.63 0.09 108.80 0.14L108.80 0.14Q107.06 0.14 106.13-0.75L106.13-0.75Q104.72-2.06 104.77-4.36L104.77-4.36Q105.09-8.63 108.84-8.81L108.84-8.81Q112.03-8.63 112.50-6L112.50-6L111.38-6Q110.91-7.78 108.80-7.83L108.80-7.83Q106.13-7.64 105.98-4.31L105.98-4.31Q105.98-0.75 108.84-0.75L108.84-0.75Q109.88-0.75 110.63-1.31L110.63-1.31Q111.56-2.06 111.52-3.61L111.52-3.61Z" transform="translate(-0.515625, 8.8125)"></path></g></g></g></g></g><defs v-gra="od"></defs></svg>